<svg width="101" height="23" viewBox="0 0 101 23" fill="none" xmlns="http://www.w3.org/2000/svg">
  <defs>
    <linearGradient id="blueGradient" x1="0" y1="0" x2="1" y2="1">
      <stop offset="0%" stop-color="#0078d4" />
      <stop offset="100%" stop-color="#5470FF" />
    </linearGradient>
  </defs>
  <path d="M9.86263 19.1918C8.31063 19.1918 6.45463 18.6478 5.97463 18.3918L6.34263 17.0158C7.06263 18.1518 8.67863 18.9358 10.0706 18.9358C11.5746 18.9358 12.4066 18.0078 12.4066 16.8878C12.4066 15.4478 10.9666 14.8398 9.84663 14.3438L9.04663 14.0078C7.92663 13.5118 6.10263 12.6478 6.10263 10.5358C6.10263 8.59985 7.67063 7.15985 10.1026 7.15985C11.5746 7.15985 12.9666 7.68785 13.4626 7.95985L13.1426 9.19185C12.4386 8.37585 11.3186 7.41585 9.89463 7.41585C8.48663 7.41585 7.73463 8.31185 7.73463 9.33585C7.73463 10.6478 8.99863 11.2398 10.1666 11.7518L10.9666 12.0878C12.2626 12.6478 14.0226 13.4958 14.0226 15.6398C14.0226 17.5278 12.5666 19.1918 9.86263 19.1918Z" fill="url(#blueGradient)"/>
  <path d="M20.3735 10.1998C22.4375 10.1998 24.0535 11.9758 24.0535 14.5198C24.0535 17.2718 22.1335 19.1918 19.7655 19.1918C18.9015 19.1918 18.1975 18.9198 17.6375 18.4718V22.6478H15.2855V10.7118L17.5735 10.1518H17.6375V11.5278C18.3735 10.7278 19.2535 10.1998 20.3735 10.1998ZM19.4615 18.9198C20.8215 18.9198 21.5575 17.3518 21.5575 14.6958C21.5575 11.8798 20.7895 10.8718 19.5895 10.8718C18.9335 10.8718 18.2775 11.1758 17.6375 11.9278V17.2718C17.9255 18.2478 18.5815 18.9198 19.4615 18.9198Z" fill="url(#blueGradient)"/>
  <path d="M32.7639 18.5678C32.8919 18.5678 32.9879 18.5518 33.0839 18.5358V18.6318C32.8599 18.7758 32.1719 19.1598 31.2919 19.1598C30.0279 19.1598 29.7239 18.3758 29.6439 17.9438C28.9079 18.6958 27.8999 19.1598 26.8759 19.1598C25.4839 19.1598 24.6199 18.2798 24.6199 17.1118C24.6199 15.6558 25.9639 14.6478 28.1399 14.4238C28.7479 14.3758 29.1639 14.3438 29.6279 14.2958V13.4158C29.6279 12.0878 29.4199 10.8398 27.7079 10.8398C26.8919 10.8398 26.1239 11.1118 25.3399 11.7358L25.1959 11.5598C26.0599 10.7598 26.9719 10.1998 28.6039 10.1998C30.8599 10.1998 31.9959 11.1758 31.9959 13.2558V17.3518C31.9959 18.1198 31.9959 18.5678 32.7639 18.5678ZM28.1559 18.3918C28.6199 18.3918 29.1479 18.1678 29.6279 17.6398V14.5358C27.8999 14.7438 26.9079 15.4638 26.9079 16.8078C26.9079 17.8958 27.4839 18.3918 28.1559 18.3918Z" fill="url(#blueGradient)"/>
  <path d="M38.9094 10.1998C39.1974 10.1998 39.5014 10.2638 39.6134 10.2958L38.9894 12.0398C38.7014 11.8958 38.3974 11.8318 38.1414 11.8318C37.3414 11.8318 36.6854 12.4078 36.4294 13.2878V18.9998H34.0774V10.7118L36.3014 10.1518H36.3654V12.7918C36.7814 11.2078 37.7574 10.1998 38.9094 10.1998Z" fill="url(#blueGradient)"/>
  <path d="M40.4893 6.71185L42.7933 6.03985H42.8573V18.9998H40.4893V6.71185ZM48.3293 10.3918V10.4238C47.1133 11.1918 46.1853 11.8798 45.0333 12.8718L48.3293 16.3598V19.5278H48.2493L43.1773 14.0878L44.6013 12.8398C45.8493 11.7518 46.4893 11.1438 47.0493 10.3918H48.3293Z" fill="url(#blueGradient)"/>
  <path d="M49.5575 18.9998V6.71185L51.8615 6.03985H51.9255V18.9998H49.5575Z" fill="url(#blueGradient)"/>
  <path d="M61.5431 14.1358H55.7191V14.1998C55.7191 16.9678 56.9031 18.2478 58.5831 18.2478C59.5271 18.2478 60.5351 17.8318 61.3351 16.8398L61.5271 16.9518C60.4551 18.5518 59.0311 19.1918 57.4951 19.1918C55.0791 19.1918 53.2711 17.5278 53.2711 14.8718C53.2711 12.0078 55.2231 10.1998 57.8791 10.1998C60.5511 10.1998 61.6391 12.0238 61.5431 14.1358ZM57.7511 10.4398C56.5351 10.4398 55.7991 11.9438 55.7191 13.8798H59.4471C59.6551 11.7998 58.8711 10.4398 57.7511 10.4398Z" fill="url(#blueGradient)"/>
  <path d="M72.0579 13.1598L75.3219 16.5838V19.5278H75.1939L70.0259 13.9918C69.7859 13.7518 69.6099 13.6878 69.2899 13.6878H68.7779V18.9998H66.2339V7.35185H69.8979C73.2099 7.35185 74.8739 8.29585 74.8739 10.2478C74.8739 11.7838 73.6259 12.6638 72.0579 13.1598ZM69.9939 13.4318C71.4979 13.4318 72.4259 12.0398 72.4259 10.3758C72.4259 8.69585 71.5779 7.60785 69.7699 7.60785H68.7779V13.3358C69.0979 13.3998 69.7059 13.4318 69.9939 13.4318Z" fill="#D60000"/>
  <path d="M79.8563 7.63985H79.4082V12.9838H79.6643C81.3923 12.9838 82.5603 12.7758 82.9443 12.4078H82.9762V13.9438H82.9443C82.5603 13.5598 81.3923 13.2718 79.6643 13.2718H79.4082V18.9998H76.8643V7.35185H83.8403L84.0643 8.82385H84.0322C82.7042 8.00785 81.2163 7.63985 79.8563 7.63985Z" fill="#D60000"/>
  <path d="M85.3227 18.9998V7.35185H87.8667V18.9998H85.3227Z" fill="#D60000"/>
  <path d="M94.3832 7.35185C98.2392 7.35185 100.959 9.30385 100.959 13.0798C100.959 16.8238 98.3192 18.9998 93.9032 18.9998H90.0312V7.35185H94.3832ZM94.3832 18.7438C96.8792 18.7438 98.1912 16.7118 98.1912 13.1278C98.1912 9.83185 96.7352 7.60785 94.2712 7.60785H92.5752V18.5998C92.9112 18.6958 93.3592 18.7438 94.3832 18.7438Z" fill="#D60000"/>
  <path d="M4.57733 0.0693359L5.33662 3.70461L8.94634 4.57733L5.31107 5.33662L4.43835 8.94634L3.67906 5.31107L0.0693359 4.43835L3.70461 3.67906L4.57733 0.0693359Z" fill="#D60000"/>
</svg>
